<?xml version="1.0" encoding="UTF-8" standalone="no"?>
<!DOCTYPE svg PUBLIC "-//W3C//DTD SVG 1.1//EN" "http://www.w3.org/Graphics/SVG/1.1/DTD/svg11.dtd">
<svg width="100%" height="100%" viewBox="0 0 470 470" version="1.1" xmlns="http://www.w3.org/2000/svg" xmlns:xlink="http://www.w3.org/1999/xlink" xml:space="preserve" xmlns:serif="http://www.serif.com/" style="fill-rule:evenodd;clip-rule:evenodd;stroke-linejoin:round;stroke-miterlimit:2;">
    <g id="Logo" transform="matrix(1.2062,0,0,1.2062,-395.166,-97.9733)">
        <g transform="matrix(1.04909,0.136388,-0.136388,1.04909,159.203,34.995)">
            <path d="M196.756,103.077C191.745,100.935 187.9,96.738 186.202,91.56C184.504,86.382 185.118,80.724 187.887,76.03C195.131,63.75 204.156,48.449 209.007,40.226C211.158,36.579 215.076,34.341 219.31,34.341L249.388,34.341C252.083,34.341 254.464,36.099 255.257,38.674C256.46,42.584 258.242,48.374 259.587,52.741C259.939,53.884 259.613,55.128 258.746,55.952C257.879,56.776 256.62,57.038 255.496,56.629C248.801,54.19 237.695,50.145 228.731,46.879C226.23,45.968 223.427,46.615 221.577,48.53C219.728,50.444 219.18,53.268 220.177,55.736C225.579,69.099 233.425,88.505 237.182,97.799C237.725,99.142 238.825,100.182 240.197,100.649C241.568,101.116 243.075,100.963 244.324,100.23C248.528,97.765 255.01,93.963 262.277,89.702C264.511,88.392 267.375,88.999 268.886,91.102C270.397,93.205 270.058,96.114 268.103,97.813C259.911,104.932 252.244,111.596 247.082,116.082C243.064,119.574 237.404,120.462 232.51,118.369C223.587,114.553 208.824,108.239 196.756,103.077ZM201.436,92.712C199.167,91.684 197.435,89.748 196.665,87.379C195.894,85.009 196.156,82.425 197.386,80.259C200.101,75.479 203.426,69.624 205.843,65.367C206.449,64.301 207.612,63.676 208.836,63.76C210.06,63.845 211.126,64.624 211.58,65.763C214.685,73.572 220.047,87.054 223.528,95.807C224.08,97.195 223.734,98.779 222.653,99.81C221.573,100.841 219.975,101.112 218.614,100.496C213.423,98.143 206.733,95.112 201.436,92.712Z"/>
        </g>
        <g transform="matrix(0.833854,0,0,0.833854,350.163,29.9457)">
            <path d="M138.339,89.194L145.71,89.194L163.309,129.648L153.253,129.648L149.767,121.077L134.054,121.077L130.683,129.648L120.855,129.648L138.339,89.194ZM141.768,100.964L136.854,113.535L146.739,113.535L141.768,100.964Z" style="fill-rule:nonzero;"/>
            <path d="M192.393,99.707C191.517,98.641 190.441,97.822 189.165,97.25C187.889,96.679 186.413,96.393 184.736,96.393C183.06,96.393 181.508,96.717 180.08,97.365C178.651,98.012 177.413,98.917 176.366,100.079C175.318,101.241 174.499,102.621 173.909,104.221C173.318,105.821 173.023,107.555 173.023,109.421C173.023,111.326 173.318,113.068 173.909,114.649C174.499,116.23 175.308,117.602 176.337,118.763C177.366,119.925 178.575,120.83 179.965,121.477C181.356,122.125 182.851,122.449 184.451,122.449C186.279,122.449 187.898,122.068 189.308,121.306C190.717,120.544 191.879,119.478 192.793,118.106L200.221,123.649C198.507,126.049 196.336,127.82 193.707,128.963C191.079,130.105 188.374,130.677 185.594,130.677C182.432,130.677 179.518,130.182 176.851,129.191C174.185,128.201 171.88,126.782 169.937,124.934C167.995,123.087 166.48,120.849 165.395,118.221C164.309,115.592 163.766,112.659 163.766,109.421C163.766,106.183 164.309,103.25 165.395,100.622C166.48,97.993 167.995,95.755 169.937,93.908C171.88,92.06 174.185,90.641 176.851,89.651C179.518,88.66 182.432,88.165 185.594,88.165C186.736,88.165 187.927,88.27 189.165,88.48C190.403,88.689 191.622,89.022 192.822,89.479C194.022,89.937 195.174,90.546 196.279,91.308C197.383,92.07 198.374,93.003 199.25,94.108L192.393,99.707Z" style="fill-rule:nonzero;"/>
            <path d="M216.963,89.194L224.334,89.194L241.933,129.648L231.876,129.648L228.391,121.077L212.678,121.077L209.306,129.648L199.478,129.648L216.963,89.194ZM220.391,100.964L215.477,113.535L225.363,113.535L220.391,100.964Z" style="fill-rule:nonzero;"/>
            <path d="M244.561,89.194L257.932,89.194C261.17,89.194 264.246,89.556 267.16,90.279C270.074,91.003 272.617,92.175 274.788,93.793C276.959,95.412 278.683,97.517 279.959,100.107C281.235,102.698 281.873,105.84 281.873,109.535C281.873,112.811 281.254,115.697 280.016,118.192C278.778,120.687 277.112,122.782 275.017,124.477C272.921,126.172 270.503,127.458 267.76,128.334C265.017,129.21 262.141,129.648 259.132,129.648L244.561,129.648L244.561,89.194ZM253.475,121.42L258.103,121.42C260.16,121.42 262.074,121.211 263.846,120.792C265.617,120.373 267.15,119.678 268.446,118.706C269.741,117.735 270.76,116.459 271.502,114.878C272.245,113.297 272.617,111.364 272.617,109.078C272.617,107.097 272.245,105.374 271.502,103.907C270.76,102.441 269.76,101.231 268.503,100.279C267.246,99.326 265.769,98.612 264.074,98.136C262.379,97.66 260.598,97.422 258.732,97.422L253.475,97.422L253.475,121.42Z" style="fill-rule:nonzero;"/>
            <path d="M286.844,89.194L314.328,89.194L314.328,97.422L295.758,97.422L295.758,104.964L313.3,104.964L313.3,113.192L295.758,113.192L295.758,121.42L315.357,121.42L315.357,129.648L286.844,129.648L286.844,89.194Z" style="fill-rule:nonzero;"/>
            <path d="M321.071,89.194L334.556,89.194L343.869,115.592L343.984,115.592L353.354,89.194L366.782,89.194L366.782,129.648L357.868,129.648L357.868,98.622L357.754,98.622L347.126,129.648L340.327,129.648L330.099,98.622L329.985,98.622L329.985,129.648L321.071,129.648L321.071,89.194Z" style="fill-rule:nonzero;"/>
            <rect x="373.468" y="89.194" width="8.914" height="40.455"/>
            <path d="M415.522,99.707C414.646,98.641 413.57,97.822 412.294,97.25C411.018,96.679 409.541,96.393 407.865,96.393C406.189,96.393 404.637,96.717 403.209,97.365C401.78,98.012 400.542,98.917 399.494,100.079C398.447,101.241 397.628,102.621 397.037,104.221C396.447,105.821 396.152,107.555 396.152,109.421C396.152,111.326 396.447,113.068 397.037,114.649C397.628,116.23 398.437,117.602 399.466,118.763C400.494,119.925 401.704,120.83 403.094,121.477C404.485,122.125 405.98,122.449 407.58,122.449C409.408,122.449 411.027,122.068 412.437,121.306C413.846,120.544 415.008,119.478 415.922,118.106L423.35,123.649C421.636,126.049 419.465,127.82 416.836,128.963C414.208,130.105 411.503,130.677 408.722,130.677C405.561,130.677 402.647,130.182 399.98,129.191C397.314,128.201 395.009,126.782 393.066,124.934C391.124,123.087 389.609,120.849 388.524,118.221C387.438,115.592 386.895,112.659 386.895,109.421C386.895,106.183 387.438,103.25 388.524,100.622C389.609,97.993 391.124,95.755 393.066,93.908C395.009,92.06 397.314,90.641 399.98,89.651C402.647,88.66 405.561,88.165 408.722,88.165C409.865,88.165 411.056,88.27 412.294,88.48C413.532,88.689 414.751,89.022 415.951,89.479C417.15,89.937 418.303,90.546 419.407,91.308C420.512,92.07 421.503,93.003 422.379,94.108L415.522,99.707Z" style="fill-rule:nonzero;"/>
            <path d="M151.481,154.562C150.605,153.495 149.529,152.676 148.253,152.105C146.977,151.533 145.501,151.248 143.825,151.248C142.149,151.248 140.596,151.572 139.168,152.219C137.739,152.867 136.501,153.771 135.454,154.933C134.406,156.095 133.587,157.476 132.997,159.076C132.406,160.676 132.111,162.409 132.111,164.276C132.111,166.18 132.406,167.923 132.997,169.504C133.587,171.085 134.397,172.456 135.425,173.618C136.454,174.78 137.663,175.684 139.054,176.332C140.444,176.979 141.939,177.303 143.539,177.303C145.368,177.303 146.986,176.922 148.396,176.161C149.805,175.399 150.967,174.332 151.881,172.961L159.309,178.503C157.595,180.903 155.424,182.674 152.796,183.817C150.167,184.96 147.463,185.531 144.682,185.531C141.52,185.531 138.606,185.036 135.94,184.046C133.273,183.055 130.968,181.636 129.026,179.789C127.083,177.941 125.569,175.703 124.483,173.075C123.397,170.447 122.855,167.513 122.855,164.276C122.855,161.038 123.397,158.104 124.483,155.476C125.569,152.848 127.083,150.61 129.026,148.762C130.968,146.915 133.273,145.496 135.94,144.505C138.606,143.515 141.52,143.02 144.682,143.02C145.825,143.02 147.015,143.124 148.253,143.334C149.491,143.543 150.71,143.877 151.91,144.334C153.11,144.791 154.262,145.401 155.367,146.162C156.472,146.924 157.462,147.858 158.338,148.962L151.481,154.562Z" style="fill-rule:nonzero;"/>
            <path d="M163.081,144.048L171.994,144.048L171.994,176.275L188.508,176.275L188.508,184.503L163.081,184.503L163.081,144.048Z" style="fill-rule:nonzero;"/>
            <path d="M189.822,164.276C189.822,161.038 190.365,158.104 191.45,155.476C192.536,152.848 194.05,150.61 195.993,148.762C197.936,146.915 200.24,145.496 202.907,144.505C205.573,143.515 208.487,143.02 211.649,143.02C214.811,143.02 217.725,143.515 220.391,144.505C223.058,145.496 225.363,146.915 227.305,148.762C229.248,150.61 230.762,152.848 231.848,155.476C232.933,158.104 233.476,161.038 233.476,164.276C233.476,167.513 232.933,170.447 231.848,173.075C230.762,175.703 229.248,177.941 227.305,179.789C225.363,181.636 223.058,183.055 220.391,184.046C217.725,185.036 214.811,185.531 211.649,185.531C208.487,185.531 205.573,185.036 202.907,184.046C200.24,183.055 197.936,181.636 195.993,179.789C194.05,177.941 192.536,175.703 191.45,173.075C190.365,170.447 189.822,167.513 189.822,164.276ZM199.078,164.276C199.078,166.18 199.374,167.923 199.964,169.504C200.555,171.085 201.402,172.456 202.507,173.618C203.611,174.78 204.935,175.684 206.478,176.332C208.021,176.979 209.744,177.303 211.649,177.303C213.554,177.303 215.277,176.979 216.82,176.332C218.363,175.684 219.687,174.78 220.791,173.618C221.896,172.456 222.744,171.085 223.334,169.504C223.924,167.923 224.22,166.18 224.22,164.276C224.22,162.409 223.924,160.676 223.334,159.076C222.744,157.476 221.896,156.095 220.791,154.933C219.687,153.771 218.363,152.867 216.82,152.219C215.277,151.572 213.554,151.248 211.649,151.248C209.744,151.248 208.021,151.572 206.478,152.219C204.935,152.867 203.611,153.771 202.507,154.933C201.402,156.095 200.555,157.476 199.964,159.076C199.374,160.676 199.078,162.409 199.078,164.276Z" style="fill-rule:nonzero;"/>
            <path d="M272.217,168.904C272.217,171.304 271.855,173.513 271.131,175.532C270.407,177.551 269.331,179.303 267.903,180.789C266.474,182.274 264.693,183.436 262.56,184.274C260.427,185.112 257.97,185.531 255.189,185.531C252.37,185.531 249.894,185.112 247.761,184.274C245.628,183.436 243.847,182.274 242.419,180.789C240.99,179.303 239.914,177.551 239.19,175.532C238.466,173.513 238.105,171.304 238.105,168.904L238.105,144.048L247.018,144.048L247.018,168.561C247.018,169.818 247.218,170.98 247.618,172.046C248.018,173.113 248.58,174.037 249.304,174.818C250.028,175.599 250.894,176.208 251.904,176.646C252.913,177.084 254.008,177.303 255.189,177.303C256.37,177.303 257.456,177.084 258.446,176.646C259.437,176.208 260.294,175.599 261.017,174.818C261.741,174.037 262.303,173.113 262.703,172.046C263.103,170.98 263.303,169.818 263.303,168.561L263.303,144.048L272.217,144.048L272.217,168.904Z" style="fill-rule:nonzero;"/>
            <path d="M279.016,144.048L292.387,144.048C295.625,144.048 298.701,144.41 301.615,145.134C304.529,145.858 307.072,147.029 309.243,148.648C311.414,150.267 313.138,152.372 314.414,154.962C315.69,157.552 316.328,160.695 316.328,164.39C316.328,167.666 315.709,170.551 314.471,173.046C313.233,175.541 311.567,177.637 309.472,179.332C307.376,181.027 304.958,182.312 302.215,183.189C299.472,184.065 296.596,184.503 293.587,184.503L279.016,184.503L279.016,144.048ZM287.93,176.275L292.558,176.275C294.615,176.275 296.529,176.065 298.301,175.646C300.072,175.227 301.605,174.532 302.901,173.561C304.196,172.589 305.215,171.313 305.957,169.732C306.7,168.151 307.072,166.218 307.072,163.933C307.072,161.952 306.7,160.228 305.957,158.762C305.215,157.295 304.215,156.086 302.958,155.133C301.701,154.181 300.224,153.467 298.529,152.991C296.834,152.514 295.053,152.276 293.187,152.276L287.93,152.276L287.93,176.275Z" style="fill-rule:nonzero;"/>
        </g>
    </g>
    <g transform="matrix(5.7884,0,0,5.7884,17.8368,173.448)">
        <path d="M0.936,0.732L0.936,31.252L3.13,31.252L3.13,31.984L0.095,31.984L0.095,0.004L3.129,0.004L3.129,0.736L0.936,0.732ZM9.386,10.407L9.386,11.951L9.43,11.951C9.814,11.387 10.323,10.919 10.917,10.583C11.497,10.26 12.162,10.098 12.91,10.098C13.63,10.098 14.287,10.238 14.882,10.518C15.477,10.797 15.929,11.289 16.237,11.995C16.575,11.495 17.033,11.054 17.614,10.672C18.194,10.289 18.88,10.098 19.674,10.098C20.276,10.098 20.834,10.172 21.348,10.318C21.862,10.466 22.302,10.701 22.67,11.025C23.036,11.348 23.323,11.771 23.529,12.293C23.734,12.815 23.837,13.443 23.837,14.18L23.837,21.813L20.71,21.813L20.71,15.349C20.71,14.966 20.695,14.606 20.666,14.267C20.645,13.96 20.563,13.66 20.424,13.385C20.291,13.134 20.088,12.927 19.84,12.789C19.583,12.643 19.234,12.569 18.793,12.569C18.353,12.569 17.997,12.654 17.725,12.822C17.453,12.992 17.24,13.212 17.086,13.484C16.927,13.771 16.822,14.086 16.778,14.411C16.726,14.758 16.7,15.108 16.7,15.459L16.7,21.813L13.572,21.813L13.572,15.415C13.572,15.077 13.565,14.742 13.551,14.411C13.54,14.097 13.476,13.788 13.363,13.495C13.255,13.218 13.063,12.983 12.813,12.822C12.555,12.654 12.177,12.569 11.678,12.569C11.48,12.577 11.284,12.611 11.094,12.669C10.836,12.743 10.596,12.871 10.389,13.043C10.161,13.227 9.967,13.492 9.805,13.837C9.644,14.183 9.563,14.635 9.563,15.194L9.563,21.813L6.434,21.813L6.434,10.403L9.386,10.407ZM25.846,12.084C26.162,11.605 26.584,11.205 27.079,10.914C27.601,10.611 28.171,10.398 28.764,10.285C29.384,10.161 30.015,10.098 30.648,10.098C31.221,10.098 31.801,10.138 32.388,10.219C32.976,10.3 33.512,10.459 33.997,10.694C34.481,10.929 34.877,11.256 35.187,11.675C35.495,12.095 35.649,12.65 35.649,13.341L35.649,19.275C35.649,19.791 35.679,20.283 35.737,20.753C35.795,21.224 35.898,21.577 36.045,21.813L32.874,21.813C32.754,21.456 32.68,21.085 32.654,20.709C32.154,21.224 31.567,21.585 30.892,21.79C30.221,21.995 29.523,22.1 28.821,22.1C28.277,22.1 27.771,22.033 27.301,21.9C26.853,21.779 26.433,21.569 26.067,21.283C25.712,21 25.429,20.637 25.241,20.224C25.042,19.798 24.943,19.29 24.943,18.702C24.943,18.055 25.057,17.522 25.285,17.102C25.512,16.683 25.805,16.349 26.166,16.098C26.526,15.848 26.937,15.661 27.4,15.536C27.862,15.411 28.329,15.312 28.799,15.238C29.269,15.165 29.731,15.106 30.186,15.062C30.642,15.018 31.046,14.952 31.398,14.863C31.751,14.775 32.029,14.646 32.235,14.477C32.441,14.308 32.536,14.062 32.522,13.737C32.522,13.4 32.467,13.131 32.356,12.933C32.253,12.742 32.101,12.582 31.916,12.469C31.719,12.355 31.502,12.28 31.277,12.249C31.018,12.211 30.757,12.193 30.495,12.194C29.878,12.194 29.394,12.326 29.041,12.591C28.689,12.855 28.483,13.297 28.424,13.914L25.296,13.914C25.34,13.179 25.523,12.569 25.846,12.084ZM32.025,16.507C31.816,16.576 31.602,16.631 31.386,16.672C31.149,16.718 30.91,16.754 30.67,16.782C30.42,16.812 30.17,16.849 29.921,16.892C29.686,16.936 29.454,16.995 29.227,17.069C29.014,17.135 28.814,17.236 28.633,17.367C28.463,17.492 28.328,17.651 28.225,17.841C28.122,18.033 28.071,18.275 28.071,18.569C28.071,18.849 28.122,19.084 28.225,19.275C28.328,19.467 28.467,19.617 28.644,19.728C28.82,19.838 29.025,19.915 29.261,19.959C29.495,20.003 29.738,20.025 29.987,20.025C30.604,20.025 31.081,19.923 31.419,19.716C31.757,19.511 32.006,19.264 32.169,18.977C32.329,18.691 32.429,18.401 32.466,18.107C32.502,17.812 32.521,17.577 32.521,17.4L32.521,16.23C32.376,16.355 32.208,16.45 32.025,16.507ZM43.885,10.407L43.885,12.503L41.594,12.503L41.594,18.15C41.594,18.68 41.682,19.033 41.858,19.209C42.034,19.386 42.387,19.474 42.915,19.474C43.092,19.474 43.26,19.467 43.422,19.452C43.583,19.437 43.738,19.415 43.885,19.386L43.885,21.812C43.593,21.859 43.298,21.889 43.003,21.901C42.688,21.915 42.372,21.923 42.056,21.923C41.572,21.923 41.112,21.889 40.679,21.823C40.276,21.767 39.888,21.636 39.534,21.437C39.202,21.244 38.931,20.961 38.752,20.621C38.561,20.268 38.465,19.805 38.465,19.231L38.465,12.503L36.571,12.503L36.571,10.407L38.465,10.407L38.465,6.987L41.594,6.987L41.594,10.407L43.885,10.407ZM48.356,10.407L48.356,12.525L48.4,12.525C48.7,11.809 49.206,11.198 49.854,10.771C50.175,10.559 50.524,10.392 50.89,10.274C51.26,10.156 51.647,10.097 52.035,10.098C52.241,10.098 52.468,10.135 52.718,10.208L52.718,13.12C52.543,13.086 52.367,13.061 52.19,13.043C51.992,13.021 51.794,13.01 51.595,13.01C51.022,13.01 50.537,13.106 50.141,13.297C49.762,13.474 49.432,13.743 49.183,14.08C48.933,14.427 48.757,14.821 48.665,15.238C48.559,15.709 48.507,16.19 48.511,16.672L48.511,21.812L45.383,21.812L45.383,10.412L48.356,10.407ZM54.04,8.642L54.04,6.06L57.168,6.06L57.168,8.642L54.04,8.642ZM57.168,10.407L57.168,21.807L54.041,21.807L54.041,10.407L57.169,10.407L57.168,10.407ZM58.798,10.407L62.367,10.407L64.372,13.385L66.354,10.407L69.813,10.407L66.068,15.746L70.276,21.813L66.706,21.813L64.328,18.217L61.948,21.813L58.446,21.813L62.543,15.812L58.798,10.407ZM74.098,31.247L74.098,0.727L71.904,0.727L71.904,-0.005L74.939,-0.005L74.939,31.975L71.904,31.975L71.904,31.243L74.098,31.247Z" style="fill:rgb(4,4,4);fill-rule:nonzero;"/>
    </g>
</svg>
